<svg width="100" height="100" viewBox="0 0 100 100" fill="none" xmlns="http://www.w3.org/2000/svg">
<path d="M0 50C0 22.3858 22.3858 0 50 0V0C77.6142 0 100 22.3858 100 50V50C100 77.6142 77.6142 100 50 100V100C22.3858 100 0 77.6142 0 50V50Z" fill="#1E1E1E"/>
<path d="M38.4375 65L43.2102 35.9091H47.7557L42.983 65H38.4375ZM25.4119 57.7841L26.1648 53.2386H48.892L48.1392 57.7841H25.4119ZM28.2102 65L32.983 35.9091H37.5284L32.7557 65H28.2102ZM27.0739 47.6705L27.8409 43.125H50.5682L49.8011 47.6705H27.0739ZM53.505 65V35.9091H59.6555V59.929H72.1271V65H53.505Z" fill="white"/>
</svg>
