<svg width="50" height="50" viewBox="0 0 50 50" fill="none" xmlns="http://www.w3.org/2000/svg">
<path d="M0 10C0 4.47715 4.47715 0 10 0H40C45.5228 0 50 4.47715 50 10V40C50 45.5228 45.5228 50 40 50H10C4.47715 50 0 45.5228 0 40V10Z" fill="#1E1E1E"/>
<path d="M20.0391 30L21.8288 19.0909H23.5334L21.7436 30H20.0391ZM15.1545 27.294L15.4368 25.5895H23.9595L23.6772 27.294H15.1545ZM16.2038 30L17.9936 19.0909H19.6982L17.9084 30H16.2038ZM15.7777 23.5014L16.0653 21.7969H24.5881L24.3004 23.5014H15.7777ZM25.6894 30V19.0909H27.9958V28.0984H32.6727V30H25.6894Z" fill="white"/>
</svg>
