<svg xmlns="http://www.w3.org/2000/svg" width="154" height="77" fill="none"><script xmlns=""/><path d="M54.757 76.834h-1.83V69.1h1.539c1.787 0 2.993.583 2.993 1.955 0 .748-.457 1.33-1.08 1.455 1.08.166 1.787.831 1.787 2.037-.042 1.705-1.33 2.287-3.41 2.287zm-.167-6.777h-.416v2.037h.5c1.164 0 1.496-.374 1.496-.998.042-.707-.457-1.04-1.58-1.04zm.5 3.035h-.916v2.744h.915c1.414 0 1.747-.582 1.747-1.33.041-.666-.292-1.414-1.747-1.414zm16.339 3.742l-.749-1.622h-3.658l-.749 1.622h-1.33l3.825-7.983h.125l3.825 7.983h-1.29zm-3.992-2.578h2.828L68.85 71.18l-1.414 3.076zM81.2 71.637v5.239h-1.247v-7.983h.166l5.239 5.405v-5.239h1.247V77h-.166l-5.24-5.363zm13.43 5.197v-7.775h1.247v7.775h-1.248zm5.82-7.733l-2.952 3.201 3.742 4.532h-1.497l-3.617-4.574 2.786-3.2h1.538v.04zm-56.296 4.698H.374A.373.373 0 010 73.425c0-.208.166-.375.374-.375h43.78c.208 0 .375.167.375.375a.373.373 0 01-.375.374zm109.39 0h-43.781a.372.372 0 01-.374-.374c0-.208.166-.375.374-.375h43.781c.207 0 .374.167.374.375a.373.373 0 01-.374.374zM8.855 51.93v10.06H3.991V37.669h5.446c5.946 0 9.604 2.453 9.604 6.943 0 3.16-2.203 5.072-4.074 5.571 3.41 1.164 4.615 8.108 9.521 8.108l-.915 3.908c-9.022.041-7.567-10.27-14.718-10.27zm0-10.603v7.027c3.16 0 5.447-.749 5.447-3.617 0-2.703-2.37-3.41-5.447-3.41zm19.582 1.289c-1.372 0-2.495-.831-2.495-2.245 0-1.33 1.123-2.12 2.495-2.12 1.414 0 2.495.79 2.495 2.162 0 1.413-1.081 2.203-2.495 2.203zm-2.162 2.952h4.324v16.423h-4.324V45.568zm6.487 0h4.78l4.159 9.397 4.199-9.397h4.74l-8.565 16.714h-.749l-8.564-16.714zM59.246 58.79c2.079 0 3.285-.79 4.282-1.539l1.996 3.077c-2.287 1.58-4.24 1.954-6.361 1.954-5.488 0-8.856-3.284-8.856-8.523 0-5.114 3.493-8.482 8.066-8.482 4.24 0 7.567 2.827 7.567 7.692 0 .873-.083 1.788-.083 1.788H54.548c.041 2.66 2.12 4.033 4.698 4.033zm-4.573-7.193h7.442c-.25-2.037-1.746-3.16-3.7-3.16-1.747 0-3.16 1.164-3.742 3.16zm17.795 4.947v5.447h-4.282V45.568h4.282v2.578c.333-1.247 1.954-2.786 4.158-2.869a4.697 4.697 0 011.081 0c-.166.79-.416 3.118-.582 3.867-4.116-.042-4.657 3.035-4.657 7.4zm7.358-10.976h4.782l4.157 9.397 4.2-9.397h4.74L89.138 62.24h-.748l-8.565-16.672zm22.243-2.952c-1.372 0-2.494-.831-2.494-2.245 0-1.33 1.122-2.12 2.494-2.12 1.414 0 2.495.79 2.495 2.162.041 1.413-1.081 2.203-2.495 2.203zm-2.162 2.952h4.324v16.423h-4.324V45.568zm16.881 13.222c2.079 0 3.285-.79 4.282-1.539l1.996 3.077c-2.287 1.58-4.241 1.954-6.361 1.954-5.488 0-8.856-3.284-8.856-8.523 0-5.114 3.493-8.482 8.066-8.482 4.241 0 7.567 2.827 7.567 7.692 0 .873-.083 1.788-.083 1.788H112.09c.083 2.66 2.162 4.033 4.698 4.033zm-4.532-7.193h7.442c-.249-2.037-1.746-3.16-3.7-3.16-1.788 0-3.201 1.164-3.742 3.16zm24.24-6.237h.748l4.116 9.147 3.825-8.897h4.74l-8.232 16.672h-.707l-4.075-9.271-4.074 9.271h-.748l-8.191-16.672h4.698l3.867 8.897 4.033-9.147z" fill="#11263F"/><path d="M77.082 16.173c-1.538-.124-9.52-3.367-10.56-3.658h-.042c-.914 0-6.652 6.07-7.94 7.11-.292.207-1.082 1.122-1.664 1.122a.59.59 0 01-.25-.083c-3.076-1.83-5.321-3.41-6.568-3.867-2.245-.832-11.143-9.563-11.143-9.563a49.86 49.86 0 01-5.28.25c-4.781 0-7.36-.707-8.274-.707-.083 0-.166 0-.208.042-.707.166-19.666 17.462-18.335 17.545.083 0 16.963 1.954 28.854 1.954.748 0 1.497 0 2.245-.042 18.21-.457 46.067-7.608 46.067-7.691 0-.083-4.573-2.204-6.901-2.412zm51.141-8.315c-3.119-1.705-5.197-3.118-6.694-3.118-.167 0-.291 0-.458.041-1.413.333-2.91.333-2.91.333S112.049 0 111.301 0c-.749 0-2.952 2.37-4.407 3.243-1.455.873-4.158 2.91-4.906 3.576-.749.665-5.156 7.026-7.858 8.564-.832.458-2.08 1.248-2.37 1.414.208-.083 1.04-.25 1.455-.333 7.733-1.829 15.217-2.744 22.327-2.744 11.683 0 20.248 2.536 25.403 4.699.499.207 1.331.665 1.497.665h.041c-.041-.125-12.098-10.062-14.26-11.226z" fill="#459AC9"/><path d="M42.2 32.222h1.663c23.283-.374 48.063-13.43 74.755-13.43h.873c10.602.125 18.211 1.123 29.146 5.322h.083c.041 0-.042-.083-.042-.083-1.455-1.122-12.265-9.022-32.929-9.022-6.402 0-13.72.749-22.035 2.703-37.128 8.73-39.498 8.855-55.713 9.853-.998.042-2.162.083-3.41.083-9.978 0-26.484-1.746-28.895-2.328-.042 0-.083 0-.125-.041h-.208c.083.457 15.8 6.943 36.837 6.943z" fill="#005C99"/><path d="M146.018 24.78c.042 0 .125.041.166.041 0 0 .042 0 0 0-4.823-2.245-15.549-4.781-26.983-4.781-.915 0-1.788 0-2.703.042-14.842.54-33.303 5.488-39.996 7.234-1.164.291-1.206.624-.333.748h.333c.25 0 19.458-5.654 43.655-5.654 8.191-.042 17.005.624 25.861 2.37z" fill="#005C99"/><script xmlns=""/></svg>